<mxfile host="app.diagrams.net" agent="Mozilla/5.0 (Macintosh; Intel Mac OS X 10_15_7) AppleWebKit/537.36 (KHTML, like Gecko) Chrome/128.0.0.0 Safari/537.36" version="24.7.12">
  <diagram name="Page-1" id="xiuBLJ37qw-kohO69TS_">
    <mxGraphModel grid="1" page="1" gridSize="10" guides="1" tooltips="1" connect="1" arrows="1" fold="1" pageScale="1" pageWidth="850" pageHeight="1100" math="0" shadow="0">
      <root>
        <mxCell id="0" />
        <mxCell id="1" parent="0" />
        <mxCell id="UD-d-UqEXtR9hoiALEOD-3" style="edgeStyle=orthogonalEdgeStyle;rounded=0;orthogonalLoop=1;jettySize=auto;html=1;" edge="1" parent="1" source="UD-d-UqEXtR9hoiALEOD-1" target="UD-d-UqEXtR9hoiALEOD-2">
          <mxGeometry relative="1" as="geometry" />
        </mxCell>
        <mxCell id="UD-d-UqEXtR9hoiALEOD-1" value="Actor" style="shape=umlActor;verticalLabelPosition=bottom;verticalAlign=top;html=1;outlineConnect=0;" vertex="1" parent="1">
          <mxGeometry x="340" y="20" width="30" height="30" as="geometry" />
        </mxCell>
        <mxCell id="UD-d-UqEXtR9hoiALEOD-60" style="edgeStyle=orthogonalEdgeStyle;rounded=0;orthogonalLoop=1;jettySize=auto;html=1;entryX=0.5;entryY=0;entryDx=0;entryDy=0;" edge="1" parent="1" source="UD-d-UqEXtR9hoiALEOD-2" target="UD-d-UqEXtR9hoiALEOD-59">
          <mxGeometry relative="1" as="geometry" />
        </mxCell>
        <mxCell id="UD-d-UqEXtR9hoiALEOD-2" value="Reserve Service" style="rounded=0;whiteSpace=wrap;html=1;" vertex="1" parent="1">
          <mxGeometry x="293" y="122" width="125" height="40" as="geometry" />
        </mxCell>
        <mxCell id="UD-d-UqEXtR9hoiALEOD-9" value="Reserve Confirmation" style="rounded=0;whiteSpace=wrap;html=1;" vertex="1" parent="1">
          <mxGeometry x="230" y="315" width="125" height="40" as="geometry" />
        </mxCell>
        <mxCell id="UD-d-UqEXtR9hoiALEOD-11" value="Reserve Confirmation" style="rounded=0;whiteSpace=wrap;html=1;" vertex="1" parent="1">
          <mxGeometry x="240" y="325" width="125" height="40" as="geometry" />
        </mxCell>
        <mxCell id="UD-d-UqEXtR9hoiALEOD-12" value="Reserve Confirmation" style="rounded=0;whiteSpace=wrap;html=1;" vertex="1" parent="1">
          <mxGeometry x="250" y="335" width="125" height="40" as="geometry" />
        </mxCell>
        <mxCell id="UD-d-UqEXtR9hoiALEOD-15" style="edgeStyle=orthogonalEdgeStyle;rounded=0;orthogonalLoop=1;jettySize=auto;html=1;entryX=0.446;entryY=0.01;entryDx=0;entryDy=0;entryPerimeter=0;" edge="1" parent="1" source="UD-d-UqEXtR9hoiALEOD-12" target="UD-d-UqEXtR9hoiALEOD-56">
          <mxGeometry relative="1" as="geometry">
            <mxPoint x="290" y="420" as="targetPoint" />
          </mxGeometry>
        </mxCell>
        <mxCell id="UD-d-UqEXtR9hoiALEOD-16" value="MySQL" style="shape=cylinder3;whiteSpace=wrap;html=1;boundedLbl=1;backgroundOutline=1;size=15;" vertex="1" parent="1">
          <mxGeometry x="30" y="530" width="60" height="80" as="geometry" />
        </mxCell>
        <mxCell id="UD-d-UqEXtR9hoiALEOD-18" value="Storing Service" style="rounded=0;whiteSpace=wrap;html=1;" vertex="1" parent="1">
          <mxGeometry x="262.5" y="510" width="125" height="40" as="geometry" />
        </mxCell>
        <mxCell id="UD-d-UqEXtR9hoiALEOD-19" style="edgeStyle=orthogonalEdgeStyle;rounded=0;orthogonalLoop=1;jettySize=auto;html=1;entryX=0.855;entryY=0;entryDx=0;entryDy=4.35;entryPerimeter=0;" edge="1" parent="1" source="UD-d-UqEXtR9hoiALEOD-18" target="UD-d-UqEXtR9hoiALEOD-23">
          <mxGeometry relative="1" as="geometry">
            <mxPoint x="120" y="570" as="targetPoint" />
          </mxGeometry>
        </mxCell>
        <mxCell id="UD-d-UqEXtR9hoiALEOD-82" style="edgeStyle=orthogonalEdgeStyle;rounded=0;orthogonalLoop=1;jettySize=auto;html=1;exitX=0.25;exitY=0;exitDx=0;exitDy=0;" edge="1" parent="1" source="UD-d-UqEXtR9hoiALEOD-20" target="UD-d-UqEXtR9hoiALEOD-80">
          <mxGeometry relative="1" as="geometry">
            <Array as="points">
              <mxPoint x="294" y="655" />
            </Array>
          </mxGeometry>
        </mxCell>
        <mxCell id="UD-d-UqEXtR9hoiALEOD-84" style="edgeStyle=orthogonalEdgeStyle;rounded=0;orthogonalLoop=1;jettySize=auto;html=1;entryX=1;entryY=0.5;entryDx=0;entryDy=0;" edge="1" parent="1" source="UD-d-UqEXtR9hoiALEOD-20" target="UD-d-UqEXtR9hoiALEOD-62">
          <mxGeometry relative="1" as="geometry">
            <Array as="points">
              <mxPoint x="290" y="790" />
            </Array>
          </mxGeometry>
        </mxCell>
        <mxCell id="UD-d-UqEXtR9hoiALEOD-20" value="Billing Engine" style="rounded=0;whiteSpace=wrap;html=1;" vertex="1" parent="1">
          <mxGeometry x="262.5" y="700" width="125" height="40" as="geometry" />
        </mxCell>
        <mxCell id="UD-d-UqEXtR9hoiALEOD-40" style="edgeStyle=orthogonalEdgeStyle;rounded=0;orthogonalLoop=1;jettySize=auto;html=1;entryX=1;entryY=0.25;entryDx=0;entryDy=0;" edge="1" parent="1" source="UD-d-UqEXtR9hoiALEOD-21" target="UD-d-UqEXtR9hoiALEOD-20">
          <mxGeometry relative="1" as="geometry" />
        </mxCell>
        <mxCell id="UD-d-UqEXtR9hoiALEOD-90" style="edgeStyle=orthogonalEdgeStyle;rounded=0;orthogonalLoop=1;jettySize=auto;html=1;" edge="1" parent="1" source="UD-d-UqEXtR9hoiALEOD-21" target="UD-d-UqEXtR9hoiALEOD-69">
          <mxGeometry relative="1" as="geometry" />
        </mxCell>
        <mxCell id="UD-d-UqEXtR9hoiALEOD-21" value="Bus Enitiy" style="rounded=0;whiteSpace=wrap;html=1;" vertex="1" parent="1">
          <mxGeometry x="450" y="550" width="70" height="40" as="geometry" />
        </mxCell>
        <mxCell id="UD-d-UqEXtR9hoiALEOD-22" value="MySQL" style="shape=cylinder3;whiteSpace=wrap;html=1;boundedLbl=1;backgroundOutline=1;size=15;" vertex="1" parent="1">
          <mxGeometry x="40" y="540" width="60" height="80" as="geometry" />
        </mxCell>
        <mxCell id="UD-d-UqEXtR9hoiALEOD-25" style="edgeStyle=orthogonalEdgeStyle;rounded=0;orthogonalLoop=1;jettySize=auto;html=1;" edge="1" parent="1" source="UD-d-UqEXtR9hoiALEOD-39" target="UD-d-UqEXtR9hoiALEOD-20">
          <mxGeometry relative="1" as="geometry">
            <Array as="points">
              <mxPoint x="325" y="590" />
            </Array>
          </mxGeometry>
        </mxCell>
        <mxCell id="UD-d-UqEXtR9hoiALEOD-23" value="DB MySQL" style="shape=cylinder3;whiteSpace=wrap;html=1;boundedLbl=1;backgroundOutline=1;size=15;" vertex="1" parent="1">
          <mxGeometry x="50" y="550" width="60" height="80" as="geometry" />
        </mxCell>
        <mxCell id="UD-d-UqEXtR9hoiALEOD-24" value="&lt;h1 style=&quot;margin-top: 0px;&quot;&gt;Master/Slave&lt;/h1&gt;&lt;div&gt;Reads from replicas and store at master&lt;/div&gt;&lt;div&gt;&lt;br&gt;&lt;/div&gt;&lt;div&gt;Archived for old transactions&lt;/div&gt;" style="text;html=1;whiteSpace=wrap;overflow=hidden;rounded=0;" vertex="1" parent="1">
          <mxGeometry x="-145" y="490" width="180" height="110" as="geometry" />
        </mxCell>
        <mxCell id="UD-d-UqEXtR9hoiALEOD-41" style="edgeStyle=orthogonalEdgeStyle;rounded=0;orthogonalLoop=1;jettySize=auto;html=1;" edge="1" parent="1" source="UD-d-UqEXtR9hoiALEOD-26">
          <mxGeometry relative="1" as="geometry">
            <mxPoint x="390" y="730" as="targetPoint" />
            <Array as="points">
              <mxPoint x="595" y="720" />
              <mxPoint x="391" y="720" />
            </Array>
          </mxGeometry>
        </mxCell>
        <mxCell id="UD-d-UqEXtR9hoiALEOD-26" value="Griphook" style="rounded=0;whiteSpace=wrap;html=1;" vertex="1" parent="1">
          <mxGeometry x="560" y="550" width="70" height="40" as="geometry" />
        </mxCell>
        <mxCell id="UD-d-UqEXtR9hoiALEOD-27" value="" style="endArrow=none;html=1;rounded=0;" edge="1" parent="1">
          <mxGeometry width="50" height="50" relative="1" as="geometry">
            <mxPoint x="-20" y="280" as="sourcePoint" />
            <mxPoint x="790" y="280" as="targetPoint" />
          </mxGeometry>
        </mxCell>
        <mxCell id="UD-d-UqEXtR9hoiALEOD-28" value="" style="endArrow=none;html=1;rounded=0;" edge="1" parent="1">
          <mxGeometry width="50" height="50" relative="1" as="geometry">
            <mxPoint x="-10" y="480" as="sourcePoint" />
            <mxPoint x="800" y="480" as="targetPoint" />
          </mxGeometry>
        </mxCell>
        <mxCell id="UD-d-UqEXtR9hoiALEOD-29" value="Reserve Team" style="text;html=1;align=center;verticalAlign=middle;whiteSpace=wrap;rounded=0;" vertex="1" parent="1">
          <mxGeometry x="600" y="162" width="60" height="30" as="geometry" />
        </mxCell>
        <mxCell id="UD-d-UqEXtR9hoiALEOD-30" value="Product Teams&lt;br&gt;&lt;br&gt;Hotels/Attractions/Flights/...etc" style="text;html=1;align=center;verticalAlign=middle;whiteSpace=wrap;rounded=0;" vertex="1" parent="1">
          <mxGeometry x="600" y="345" width="60" height="30" as="geometry" />
        </mxCell>
        <mxCell id="UD-d-UqEXtR9hoiALEOD-32" style="edgeStyle=orthogonalEdgeStyle;rounded=0;orthogonalLoop=1;jettySize=auto;html=1;" edge="1" parent="1" source="UD-d-UqEXtR9hoiALEOD-31" target="UD-d-UqEXtR9hoiALEOD-26">
          <mxGeometry relative="1" as="geometry" />
        </mxCell>
        <mxCell id="UD-d-UqEXtR9hoiALEOD-33" style="edgeStyle=orthogonalEdgeStyle;rounded=0;orthogonalLoop=1;jettySize=auto;html=1;entryX=0.5;entryY=0;entryDx=0;entryDy=0;" edge="1" parent="1" source="UD-d-UqEXtR9hoiALEOD-31" target="UD-d-UqEXtR9hoiALEOD-21">
          <mxGeometry relative="1" as="geometry" />
        </mxCell>
        <mxCell id="UD-d-UqEXtR9hoiALEOD-31" value="Products Srv for Prod Teams" style="rounded=0;whiteSpace=wrap;html=1;" vertex="1" parent="1">
          <mxGeometry x="530" y="390" width="130" height="40" as="geometry" />
        </mxCell>
        <mxCell id="UD-d-UqEXtR9hoiALEOD-34" value="- &lt;b&gt;Larger chain (hotels)&lt;/b&gt; also which entity accomodation or flights or ..bla&lt;div&gt;- How invoices looks like &lt;b&gt;(configured&lt;/b&gt;)&lt;/div&gt;&lt;div&gt;- &lt;b&gt;Commission&lt;/b&gt;&lt;br&gt;&lt;div&gt;&lt;br&gt;&lt;/div&gt;&lt;/div&gt;" style="text;html=1;align=center;verticalAlign=middle;whiteSpace=wrap;rounded=0;" vertex="1" parent="1">
          <mxGeometry x="410" y="630" width="150" height="30" as="geometry" />
        </mxCell>
        <mxCell id="UD-d-UqEXtR9hoiALEOD-36" value="&lt;div&gt;Bank Details&lt;br&gt;Tax&lt;/div&gt;&lt;div&gt;&lt;br&gt;&lt;/div&gt;" style="text;html=1;align=center;verticalAlign=middle;whiteSpace=wrap;rounded=0;" vertex="1" parent="1">
          <mxGeometry x="630" y="580" width="60" height="30" as="geometry" />
        </mxCell>
        <mxCell id="UD-d-UqEXtR9hoiALEOD-45" style="edgeStyle=orthogonalEdgeStyle;rounded=0;orthogonalLoop=1;jettySize=auto;html=1;entryX=0;entryY=0.5;entryDx=0;entryDy=0;" edge="1" parent="1" source="UD-d-UqEXtR9hoiALEOD-42" target="UD-d-UqEXtR9hoiALEOD-20">
          <mxGeometry relative="1" as="geometry" />
        </mxCell>
        <mxCell id="UD-d-UqEXtR9hoiALEOD-42" value="Billing Utilities" style="rounded=0;whiteSpace=wrap;html=1;" vertex="1" parent="1">
          <mxGeometry x="35" y="700" width="70" height="40" as="geometry" />
        </mxCell>
        <mxCell id="UD-d-UqEXtR9hoiALEOD-44" style="edgeStyle=orthogonalEdgeStyle;rounded=0;orthogonalLoop=1;jettySize=auto;html=1;entryX=0;entryY=0.5;entryDx=0;entryDy=0;" edge="1" parent="1" source="UD-d-UqEXtR9hoiALEOD-43" target="UD-d-UqEXtR9hoiALEOD-42">
          <mxGeometry relative="1" as="geometry" />
        </mxCell>
        <mxCell id="UD-d-UqEXtR9hoiALEOD-43" value="Product listing" style="rounded=0;whiteSpace=wrap;html=1;" vertex="1" parent="1">
          <mxGeometry x="-165" y="740" width="130" height="40" as="geometry" />
        </mxCell>
        <mxCell id="UD-d-UqEXtR9hoiALEOD-46" value="&lt;div&gt;Light details of products meta data including&lt;b&gt;&amp;nbsp;Balance / address / Blocked Hotesl ..&lt;/b&gt;&lt;/div&gt;" style="text;html=1;align=center;verticalAlign=middle;whiteSpace=wrap;rounded=0;" vertex="1" parent="1">
          <mxGeometry x="-220" y="700" width="180" height="30" as="geometry" />
        </mxCell>
        <mxCell id="UD-d-UqEXtR9hoiALEOD-48" value="&lt;div&gt;Configure&lt;/div&gt;" style="text;html=1;align=center;verticalAlign=middle;whiteSpace=wrap;rounded=0;" vertex="1" parent="1">
          <mxGeometry x="550" y="450" width="60" height="30" as="geometry" />
        </mxCell>
        <mxCell id="UD-d-UqEXtR9hoiALEOD-49" value="&lt;div&gt;Configure&lt;/div&gt;" style="text;html=1;align=center;verticalAlign=middle;whiteSpace=wrap;rounded=0;" vertex="1" parent="1">
          <mxGeometry x="470" y="437.4" width="60" height="30" as="geometry" />
        </mxCell>
        <mxCell id="UD-d-UqEXtR9hoiALEOD-50" value="FinAPI" style="rounded=0;whiteSpace=wrap;html=1;" vertex="1" parent="1">
          <mxGeometry x="560" y="960" width="125" height="40" as="geometry" />
        </mxCell>
        <mxCell id="UD-d-UqEXtR9hoiALEOD-77" style="edgeStyle=orthogonalEdgeStyle;rounded=0;orthogonalLoop=1;jettySize=auto;html=1;entryX=0.5;entryY=1;entryDx=0;entryDy=0;" edge="1" parent="1" source="UD-d-UqEXtR9hoiALEOD-51" target="UD-d-UqEXtR9hoiALEOD-74">
          <mxGeometry relative="1" as="geometry" />
        </mxCell>
        <mxCell id="UD-d-UqEXtR9hoiALEOD-51" value="SAP" style="rounded=0;whiteSpace=wrap;html=1;" vertex="1" parent="1">
          <mxGeometry x="405" y="1130" width="125" height="20" as="geometry" />
        </mxCell>
        <mxCell id="UD-d-UqEXtR9hoiALEOD-52" style="edgeStyle=orthogonalEdgeStyle;rounded=0;orthogonalLoop=1;jettySize=auto;html=1;entryX=0.416;entryY=1.025;entryDx=0;entryDy=0;entryPerimeter=0;" edge="1" parent="1" source="UD-d-UqEXtR9hoiALEOD-53" target="UD-d-UqEXtR9hoiALEOD-50">
          <mxGeometry relative="1" as="geometry" />
        </mxCell>
        <mxCell id="UD-d-UqEXtR9hoiALEOD-58" style="edgeStyle=orthogonalEdgeStyle;rounded=0;orthogonalLoop=1;jettySize=auto;html=1;" edge="1" parent="1" source="UD-d-UqEXtR9hoiALEOD-56" target="UD-d-UqEXtR9hoiALEOD-18">
          <mxGeometry relative="1" as="geometry" />
        </mxCell>
        <mxCell id="UD-d-UqEXtR9hoiALEOD-56" value="&lt;b&gt;Queue:&amp;nbsp;&lt;/b&gt;Stream of product agnostic biliable Trans" style="shape=process;whiteSpace=wrap;html=1;backgroundOutline=1;" vertex="1" parent="1">
          <mxGeometry x="140" y="412.4" width="280" height="60" as="geometry" />
        </mxCell>
        <mxCell id="UD-d-UqEXtR9hoiALEOD-61" style="edgeStyle=orthogonalEdgeStyle;rounded=0;orthogonalLoop=1;jettySize=auto;html=1;" edge="1" parent="1" source="UD-d-UqEXtR9hoiALEOD-59" target="UD-d-UqEXtR9hoiALEOD-9">
          <mxGeometry relative="1" as="geometry" />
        </mxCell>
        <mxCell id="UD-d-UqEXtR9hoiALEOD-59" value="&lt;b&gt;Queue:&amp;nbsp;&lt;/b&gt;Enriched resserve order change stream" style="shape=process;whiteSpace=wrap;html=1;backgroundOutline=1;" vertex="1" parent="1">
          <mxGeometry x="215" y="200" width="255" height="60" as="geometry" />
        </mxCell>
        <mxCell id="UD-d-UqEXtR9hoiALEOD-89" style="edgeStyle=orthogonalEdgeStyle;rounded=0;orthogonalLoop=1;jettySize=auto;html=1;entryX=0;entryY=0.25;entryDx=0;entryDy=0;" edge="1" parent="1" source="UD-d-UqEXtR9hoiALEOD-62" target="UD-d-UqEXtR9hoiALEOD-69">
          <mxGeometry relative="1" as="geometry">
            <Array as="points">
              <mxPoint x="130" y="840" />
            </Array>
          </mxGeometry>
        </mxCell>
        <mxCell id="UD-d-UqEXtR9hoiALEOD-62" value="&lt;b&gt;Queue:&lt;/b&gt;Document created / Finalized event" style="shape=process;whiteSpace=wrap;html=1;backgroundOutline=1;" vertex="1" parent="1">
          <mxGeometry x="57.5" y="760" width="145" height="60" as="geometry" />
        </mxCell>
        <mxCell id="UD-d-UqEXtR9hoiALEOD-68" style="edgeStyle=orthogonalEdgeStyle;rounded=0;orthogonalLoop=1;jettySize=auto;html=1;entryX=0;entryY=0.5;entryDx=0;entryDy=0;" edge="1" parent="1" source="UD-d-UqEXtR9hoiALEOD-55" target="UD-d-UqEXtR9hoiALEOD-50">
          <mxGeometry relative="1" as="geometry" />
        </mxCell>
        <mxCell id="UD-d-UqEXtR9hoiALEOD-67" value="&lt;b&gt;Queue:&amp;nbsp;&lt;/b&gt;Enrichment Documentent" style="shape=process;whiteSpace=wrap;html=1;backgroundOutline=1;" vertex="1" parent="1">
          <mxGeometry x="210" y="910" width="155" height="60" as="geometry" />
        </mxCell>
        <mxCell id="UD-d-UqEXtR9hoiALEOD-70" style="edgeStyle=orthogonalEdgeStyle;rounded=0;orthogonalLoop=1;jettySize=auto;html=1;entryX=1;entryY=0.25;entryDx=0;entryDy=0;" edge="1" parent="1" source="UD-d-UqEXtR9hoiALEOD-69" target="UD-d-UqEXtR9hoiALEOD-67">
          <mxGeometry relative="1" as="geometry" />
        </mxCell>
        <mxCell id="UD-d-UqEXtR9hoiALEOD-69" value="Enrichment Service" style="rounded=0;whiteSpace=wrap;html=1;" vertex="1" parent="1">
          <mxGeometry x="437.5" y="830" width="125" height="40" as="geometry" />
        </mxCell>
        <mxCell id="UD-d-UqEXtR9hoiALEOD-71" value="add &lt;b&gt;commission/Discounts&lt;/b&gt;, group related change/new transactino in one document, add tax and line items, ..bla" style="text;html=1;align=center;verticalAlign=middle;whiteSpace=wrap;rounded=0;" vertex="1" parent="1">
          <mxGeometry x="530" y="800" width="200" height="30" as="geometry" />
        </mxCell>
        <mxCell id="UD-d-UqEXtR9hoiALEOD-72" value="" style="edgeStyle=orthogonalEdgeStyle;rounded=0;orthogonalLoop=1;jettySize=auto;html=1;entryX=0;entryY=0.5;entryDx=0;entryDy=0;" edge="1" parent="1" source="UD-d-UqEXtR9hoiALEOD-67" target="UD-d-UqEXtR9hoiALEOD-55">
          <mxGeometry relative="1" as="geometry">
            <mxPoint x="365" y="940" as="sourcePoint" />
            <mxPoint x="560" y="930" as="targetPoint" />
          </mxGeometry>
        </mxCell>
        <mxCell id="UD-d-UqEXtR9hoiALEOD-55" value="&lt;div&gt;Collect&lt;/div&gt;" style="text;html=1;align=center;verticalAlign=middle;whiteSpace=wrap;rounded=0;" vertex="1" parent="1">
          <mxGeometry x="460" y="940" width="60" height="30" as="geometry" />
        </mxCell>
        <mxCell id="UD-d-UqEXtR9hoiALEOD-93" style="edgeStyle=orthogonalEdgeStyle;rounded=0;orthogonalLoop=1;jettySize=auto;html=1;entryX=0.5;entryY=1;entryDx=0;entryDy=0;" edge="1" parent="1" source="UD-d-UqEXtR9hoiALEOD-74" target="UD-d-UqEXtR9hoiALEOD-92">
          <mxGeometry relative="1" as="geometry" />
        </mxCell>
        <mxCell id="UD-d-UqEXtR9hoiALEOD-74" value="&lt;b&gt;Queue:&amp;nbsp;&lt;/b&gt;Update Document status" style="shape=process;whiteSpace=wrap;html=1;backgroundOutline=1;" vertex="1" parent="1">
          <mxGeometry x="215" y="1050" width="170" height="60" as="geometry" />
        </mxCell>
        <mxCell id="UD-d-UqEXtR9hoiALEOD-79" value="" style="edgeStyle=orthogonalEdgeStyle;rounded=0;orthogonalLoop=1;jettySize=auto;html=1;" edge="1" parent="1" source="UD-d-UqEXtR9hoiALEOD-23" target="UD-d-UqEXtR9hoiALEOD-39">
          <mxGeometry relative="1" as="geometry">
            <mxPoint x="110" y="590" as="sourcePoint" />
            <mxPoint x="325" y="700" as="targetPoint" />
          </mxGeometry>
        </mxCell>
        <mxCell id="UD-d-UqEXtR9hoiALEOD-39" value="&lt;div&gt;Collects&lt;/div&gt;" style="text;html=1;align=center;verticalAlign=middle;whiteSpace=wrap;rounded=0;" vertex="1" parent="1">
          <mxGeometry x="202.5" y="575" width="60" height="30" as="geometry" />
        </mxCell>
        <mxCell id="UD-d-UqEXtR9hoiALEOD-80" value="&lt;div&gt;Update&lt;/div&gt;" style="text;html=1;align=center;verticalAlign=middle;whiteSpace=wrap;rounded=0;" vertex="1" parent="1">
          <mxGeometry x="170" y="640" width="60" height="30" as="geometry" />
        </mxCell>
        <mxCell id="UD-d-UqEXtR9hoiALEOD-83" style="edgeStyle=orthogonalEdgeStyle;rounded=0;orthogonalLoop=1;jettySize=auto;html=1;entryX=0.5;entryY=1;entryDx=0;entryDy=0;entryPerimeter=0;" edge="1" parent="1" source="UD-d-UqEXtR9hoiALEOD-80" target="UD-d-UqEXtR9hoiALEOD-23">
          <mxGeometry relative="1" as="geometry" />
        </mxCell>
        <mxCell id="UD-d-UqEXtR9hoiALEOD-87" value="" style="edgeStyle=orthogonalEdgeStyle;rounded=0;orthogonalLoop=1;jettySize=auto;html=1;" edge="1" parent="1" source="UD-d-UqEXtR9hoiALEOD-20" target="UD-d-UqEXtR9hoiALEOD-86">
          <mxGeometry relative="1" as="geometry">
            <mxPoint x="325" y="740" as="sourcePoint" />
            <mxPoint x="160" y="800" as="targetPoint" />
            <Array as="points">
              <mxPoint x="325" y="790" />
            </Array>
          </mxGeometry>
        </mxCell>
        <mxCell id="UD-d-UqEXtR9hoiALEOD-86" value="&lt;div&gt;How document look like, line itmes, initial template of it&lt;br&gt;Group related trans. of on reservation , ..etc&lt;/div&gt;" style="text;html=1;align=center;verticalAlign=middle;whiteSpace=wrap;rounded=0;" vertex="1" parent="1">
          <mxGeometry x="317.5" y="750" width="142.5" height="30" as="geometry" />
        </mxCell>
        <mxCell id="UD-d-UqEXtR9hoiALEOD-91" value="" style="edgeStyle=orthogonalEdgeStyle;rounded=0;orthogonalLoop=1;jettySize=auto;html=1;entryX=0.416;entryY=1.025;entryDx=0;entryDy=0;entryPerimeter=0;" edge="1" parent="1" source="UD-d-UqEXtR9hoiALEOD-51" target="UD-d-UqEXtR9hoiALEOD-53">
          <mxGeometry relative="1" as="geometry">
            <mxPoint x="530" y="1140" as="sourcePoint" />
            <mxPoint x="612" y="1001" as="targetPoint" />
          </mxGeometry>
        </mxCell>
        <mxCell id="UD-d-UqEXtR9hoiALEOD-53" value="&lt;div&gt;Polls&lt;/div&gt;" style="text;html=1;align=center;verticalAlign=middle;whiteSpace=wrap;rounded=0;" vertex="1" parent="1">
          <mxGeometry x="590" y="1040" width="60" height="30" as="geometry" />
        </mxCell>
        <mxCell id="UD-d-UqEXtR9hoiALEOD-92" value="Status update" style="rounded=0;whiteSpace=wrap;html=1;" vertex="1" parent="1">
          <mxGeometry x="50" y="990" width="70" height="40" as="geometry" />
        </mxCell>
        <mxCell id="UD-d-UqEXtR9hoiALEOD-94" style="edgeStyle=orthogonalEdgeStyle;rounded=0;orthogonalLoop=1;jettySize=auto;html=1;entryX=0;entryY=1;entryDx=0;entryDy=-15;entryPerimeter=0;" edge="1" parent="1" source="UD-d-UqEXtR9hoiALEOD-92" target="UD-d-UqEXtR9hoiALEOD-22">
          <mxGeometry relative="1" as="geometry">
            <Array as="points">
              <mxPoint x="-10" y="1010" />
              <mxPoint x="-10" y="605" />
            </Array>
          </mxGeometry>
        </mxCell>
        <mxCell id="UD-d-UqEXtR9hoiALEOD-95" value="Document status : New - Informed - sent - posted to SAP - Paid/UnPaid" style="text;html=1;align=center;verticalAlign=middle;whiteSpace=wrap;rounded=0;" vertex="1" parent="1">
          <mxGeometry x="30" y="1110" width="200" height="30" as="geometry" />
        </mxCell>
        <mxCell id="UD-d-UqEXtR9hoiALEOD-99" style="edgeStyle=orthogonalEdgeStyle;rounded=0;orthogonalLoop=1;jettySize=auto;html=1;" edge="1" parent="1" source="UD-d-UqEXtR9hoiALEOD-96" target="UD-d-UqEXtR9hoiALEOD-22">
          <mxGeometry relative="1" as="geometry" />
        </mxCell>
        <mxCell id="UD-d-UqEXtR9hoiALEOD-96" value="Object Store S3" style="shape=cylinder3;whiteSpace=wrap;html=1;boundedLbl=1;backgroundOutline=1;size=15;" vertex="1" parent="1">
          <mxGeometry x="-290" y="540" width="125" height="80" as="geometry" />
        </mxCell>
        <mxCell id="UD-d-UqEXtR9hoiALEOD-100" value="End of each month (first to 10 of new months)&lt;div&gt;&lt;br&gt;&lt;/div&gt;" style="text;html=1;align=center;verticalAlign=middle;whiteSpace=wrap;rounded=0;" vertex="1" parent="1">
          <mxGeometry x="620" y="1070" width="200" height="30" as="geometry" />
        </mxCell>
        <mxCell id="UD-d-UqEXtR9hoiALEOD-101" value="&lt;div&gt;APIs: List new UUIDs - Get UUID doc info&lt;/div&gt;" style="text;html=1;align=center;verticalAlign=middle;whiteSpace=wrap;rounded=0;" vertex="1" parent="1">
          <mxGeometry x="640" y="930" width="200" height="30" as="geometry" />
        </mxCell>
        <mxCell id="neXOPTqBlgnbpKT8xkSi-1" value="Consumers" style="text;html=1;align=center;verticalAlign=middle;whiteSpace=wrap;rounded=0;" vertex="1" parent="1">
          <mxGeometry x="170" y="305" width="60" height="30" as="geometry" />
        </mxCell>
        <mxCell id="neXOPTqBlgnbpKT8xkSi-2" value="Storing Service" style="rounded=0;whiteSpace=wrap;html=1;" vertex="1" parent="1">
          <mxGeometry x="272.5" y="520" width="125" height="40" as="geometry" />
        </mxCell>
        <mxCell id="neXOPTqBlgnbpKT8xkSi-3" value="Storing Service" style="rounded=0;whiteSpace=wrap;html=1;" vertex="1" parent="1">
          <mxGeometry x="282.5" y="530" width="125" height="40" as="geometry" />
        </mxCell>
        <mxCell id="neXOPTqBlgnbpKT8xkSi-4" value="Consumers" style="text;html=1;align=center;verticalAlign=middle;whiteSpace=wrap;rounded=0;" vertex="1" parent="1">
          <mxGeometry x="360" y="490" width="60" height="30" as="geometry" />
        </mxCell>
        <mxCell id="neXOPTqBlgnbpKT8xkSi-6" value="DB" style="shape=cylinder3;whiteSpace=wrap;html=1;boundedLbl=1;backgroundOutline=1;size=15;" vertex="1" parent="1">
          <mxGeometry x="640" y="610" width="30" height="50" as="geometry" />
        </mxCell>
        <mxCell id="neXOPTqBlgnbpKT8xkSi-7" value="DB" style="shape=cylinder3;whiteSpace=wrap;html=1;boundedLbl=1;backgroundOutline=1;size=15;" vertex="1" parent="1">
          <mxGeometry x="510" y="506.2" width="30" height="47.6" as="geometry" />
        </mxCell>
      </root>
    </mxGraphModel>
  </diagram>
</mxfile>
